<?xml version="1.0" encoding="UTF-8" standalone="no"?>
<!-- Created with Inkscape (http://www.inkscape.org/) -->

<svg
   xmlns:dc="http://purl.org/dc/elements/1.1/"
   xmlns:cc="http://creativecommons.org/ns#"
   xmlns:rdf="http://www.w3.org/1999/02/22-rdf-syntax-ns#"
   xmlns:svg="http://www.w3.org/2000/svg"
   xmlns="http://www.w3.org/2000/svg"
   xmlns:sodipodi="http://sodipodi.sourceforge.net/DTD/sodipodi-0.dtd"
   xmlns:inkscape="http://www.inkscape.org/namespaces/inkscape"
   width="744.09448819"
   height="1052.3622047"
   id="svg3190"
   version="1.1"
   inkscape:version="0.48.3.1 r9886"
   sodipodi:docname="New document 2">
  <defs
     id="defs3192" />
  <sodipodi:namedview
     id="base"
     pagecolor="#ffffff"
     bordercolor="#666666"
     borderopacity="1.0"
     inkscape:pageopacity="0.0"
     inkscape:pageshadow="2"
     inkscape:zoom="0.74091976"
     inkscape:cx="631.11165"
     inkscape:cy="423.92516"
     inkscape:document-units="px"
     inkscape:current-layer="layer1"
     showgrid="false"
     inkscape:window-width="923"
     inkscape:window-height="669"
     inkscape:window-x="65"
     inkscape:window-y="24"
     inkscape:window-maximized="0" />
  <metadata
     id="metadata3195">
    <rdf:RDF>
      <cc:Work
         rdf:about="">
        <dc:format>image/svg+xml</dc:format>
        <dc:type
           rdf:resource="http://purl.org/dc/dcmitype/StillImage" />
        <dc:title></dc:title>
      </cc:Work>
    </rdf:RDF>
  </metadata>
  <g
     inkscape:label="Layer 1"
     inkscape:groupmode="layer"
     id="layer1">
    <g
       transform="translate(18.426325,501.92994)"
       style="font-size:45.92539596999999674px;font-style:normal;font-variant:normal;font-weight:bold;font-stretch:normal;text-align:start;line-height:125%;letter-spacing:0px;word-spacing:0px;writing-mode:lr-tb;text-anchor:start;fill:#000000;fill-opacity:1;stroke:none;font-family:Sawasdee;-inkscape-font-specification:Sawasdee Bold"
       id="text3761">
      <path
         inkscape:connector-curvature="0"
         d="m 150.80723,13.156433 c 1.0913,1.793976 1.63696,3.752381 1.63699,5.875222 -3e-5,2.122862 -0.54569,4.081268 -1.63699,5.875221 -1.09135,1.793965 -2.57137,3.214182 -4.44006,4.260657 -1.86872,1.031528 -3.90188,1.547291 -6.09946,1.547291 -2.21257,0 -4.26067,-0.515763 -6.14432,-1.547291 -1.86871,-1.046475 -3.34873,-2.466692 -4.44005,-4.260657 -1.09133,-1.793953 -1.63699,-3.752359 -1.63699,-5.875221 0,-2.122841 0.54566,-4.081246 1.63699,-5.875222 1.09132,-1.808891 2.57134,-3.2291089 4.44005,-4.2606568 1.88365,-1.0464546 3.93175,-1.5696926 6.14432,-1.5697157 2.19758,2.31e-5 4.23074,0.5232611 6.09946,1.5697157 1.86869,1.0315479 3.34871,2.4517658 4.44006,4.2606568 m -19.17296,5.875222 c -10e-6,2.317208 0.84465,4.283088 2.53397,5.897646 1.6893,1.614568 3.73741,2.42185 6.14432,2.421847 2.40688,3e-6 4.46245,-0.807279 6.16674,-2.421847 1.70424,-1.629508 2.55637,-3.595388 2.55639,-5.897646 -2e-5,-2.287287 -0.85215,-4.238217 -2.55639,-5.852797 -1.70429,-1.629496 -3.75986,-2.444252 -6.16674,-2.444272 -2.40691,2e-5 -4.45502,0.814776 -6.14432,2.444272 -1.68932,1.61458 -2.53398,3.56551 -2.53397,5.852797"
         id="path3065"
         style="fill:#000000" />
      <path
         inkscape:connector-curvature="0"
         d="m 173.25416,7.6400036 3.96914,0 c 0.40363,1.2707437 0.60545,2.4442924 0.60546,3.5206484 0.97172,-1.121205 2.13032,-2.0406094 3.4758,-2.7582151 1.36041,-0.7175615 2.6984,-1.0763533 4.01398,-1.0763764 2.03314,2.31e-5 3.8869,0.5382108 5.56128,1.6145647 1.68929,1.0763968 3.00486,2.5115638 3.94672,4.3055058 0.95675,1.779027 1.43514,3.707532 1.43517,5.785524 -3e-5,2.078013 -0.47842,4.013994 -1.43517,5.807948 -0.94186,1.779014 -2.25743,3.206707 -3.94672,4.283081 -1.67438,1.061427 -3.52814,1.59214 -5.56128,1.59214 -1.33053,0 -2.676,-0.336367 -4.03641,-1.009103 -1.36043,-0.687683 -2.51155,-1.584663 -3.45337,-2.690941 l 0,13.454706 -3.5655,0 0,-26.146978 c 0,-1.136158 -0.0972,-2.406879 -0.29152,-3.812167 -0.1794,-1.4052481 -0.41859,-2.3620262 -0.71758,-2.8703374 m 4.5746,11.3916514 c -10e-6,2.332158 0.74,4.305513 2.22003,5.92007 1.49495,1.599619 3.25154,2.399426 5.26975,2.399423 1.9883,3e-6 3.72993,-0.807279 5.22492,-2.421847 1.49494,-1.614558 2.24242,-3.580438 2.24245,-5.897646 -3e-5,-2.317186 -0.74751,-4.283066 -2.24245,-5.897647 -1.49499,-1.629495 -3.23662,-2.444251 -5.22492,-2.444271 -2.01821,2e-5 -3.7748,0.814776 -5.26975,2.444271 -1.48003,1.614581 -2.22004,3.580461 -2.22003,5.897647"
         id="path3067"
         style="fill:#000000" />
      <path
         inkscape:connector-curvature="0"
         d="m 220.95109,16.47526 14.23957,0 c -0.47841,-1.704247 -1.38287,-3.08709 -2.71337,-4.148534 -1.31559,-1.061407 -2.78065,-1.59212 -4.3952,-1.59214 -1.58468,2e-5 -3.04227,0.530733 -4.37278,1.59214 -1.31558,1.061444 -2.23499,2.444287 -2.75822,4.148534 m -0.40364,3.318828 c 0.17939,2.152761 0.99415,3.94672 2.44427,5.381882 1.45011,1.420223 3.117,2.130332 5.00067,2.130329 1.48,3e-6 2.85537,-0.373739 4.12611,-1.121226 1.2707,-0.762428 2.3396,-1.876178 3.2067,-3.341252 l 3.04974,1.636989 c -0.58306,1.031533 -1.26327,1.943462 -2.04063,2.735791 -0.77741,0.777385 -1.53237,1.382846 -2.26488,1.816385 -0.73255,0.433541 -1.50246,0.784858 -2.30972,1.053952 -0.8073,0.269094 -1.50246,0.441015 -2.08548,0.515764 -0.56811,0.07475 -1.12872,0.112122 -1.68184,0.112122 -2.03317,0 -3.8944,-0.530713 -5.5837,-1.59214 -1.68932,-1.061424 -3.01237,-2.481642 -3.96914,-4.260657 -0.94184,-1.793953 -1.41275,-3.737409 -1.41275,-5.830372 0,-2.077992 0.48586,-4.006497 1.4576,-5.785524 0.97172,-1.793942 2.30971,-3.229109 4.01398,-4.3055058 1.70426,-1.0763539 3.56549,-1.6145416 5.58371,-1.6145647 1.92849,2.31e-5 3.7075,0.485887 5.33703,1.4575931 1.62949,0.9717494 2.93759,2.2798444 3.92429,3.9242894 0.98665,1.62953 1.56222,3.416014 1.72669,5.359458 l 0.0897,1.726687 -18.61234,0"
         id="path3069"
         style="fill:#000000" />
      <path
         inkscape:connector-curvature="0"
         d="m 263.91645,7.6400036 c 0.25414,0.822254 0.41111,1.480039 0.47092,1.9733569 0.0747,0.4933595 0.11212,1.3006415 0.11212,2.4218475 0.85213,-1.285653 1.90608,-2.3919274 3.16186,-3.3188279 1.25576,-0.9268571 2.46668,-1.3902965 3.63277,-1.3903196 1.25576,2.31e-5 2.37698,0.2541673 3.36367,0.7624333 0.98667,0.4933611 1.779,1.1735705 2.377,2.0406302 0.59797,0.867101 1.04646,1.846303 1.34547,2.937611 0.29898,1.076393 0.44847,2.227516 0.44849,3.453374 l 0,13.903197 -3.56549,0 0,-13.903197 c -2e-5,-0.68767 -0.0673,-1.345455 -0.20182,-1.973356 -0.11962,-0.62787 -0.32144,-1.240806 -0.60547,-1.83881 -0.28406,-0.612918 -0.70265,-1.098782 -1.25577,-1.457593 -0.55315,-0.373723 -1.21841,-0.560593 -1.99578,-0.560613 -0.97174,2e-5 -1.99579,0.508308 -3.07216,1.524867 -1.07638,1.001645 -1.95094,2.160243 -2.62367,3.475799 -0.67274,1.300635 -1.0091,2.414384 -1.0091,3.341252 l 0,11.391651 -3.54307,0 0,-16.055949 c 0,-1.151108 -0.0972,-2.429304 -0.29152,-3.834592 -0.1794,-1.4201973 -0.41859,-2.3844502 -0.71758,-2.8927614 l 3.96913,0"
         id="path3071"
         style="fill:#000000" />
    </g>
    <g
       transform="translate(18.426325,501.92994)"
       style="font-size:90.67772675000000504px;font-style:normal;font-variant:normal;font-weight:normal;font-stretch:normal;text-align:start;line-height:125%;letter-spacing:0px;word-spacing:0px;writing-mode:lr-tb;text-anchor:start;fill:#000000;fill-opacity:1;stroke:none;font-family:Sawasdee;-inkscape-font-specification:Sawasdee"
       id="text3761-1">
      <path
         inkscape:connector-curvature="0"
         d="m 297.05394,51.478123 -3.89631,0 12.66301,-66.90139 24.13054,57.381999 24.52904,-57.381999 12.30879,66.90139 -4.16196,0 -9.6965,-53.1314808 L 329.68553,52.230819 307.14892,-1.6533578 297.05394,51.478123"
         id="path3062"
         style="fill:#000000" />
    </g>
    <g
       transform="translate(18.426325,501.92994)"
       style="font-size:45.92539596999999674px;font-style:normal;font-variant:normal;font-weight:bold;font-stretch:normal;text-align:start;line-height:125%;letter-spacing:0px;word-spacing:0px;writing-mode:lr-tb;text-anchor:start;fill:#000000;fill-opacity:1;stroke:none;font-family:Sawasdee;-inkscape-font-specification:Sawasdee Bold"
       id="text3761-17">
      <path
         inkscape:connector-curvature="0"
         d="m 397.2487,13.355734 c 1.0913,1.793976 1.63696,3.752381 1.63699,5.875221 -3e-5,2.122863 -0.54569,4.081268 -1.63699,5.875222 -1.09135,1.793964 -2.57136,3.214182 -4.44005,4.260657 -1.86873,1.031527 -3.90188,1.547291 -6.09947,1.547291 -2.21256,0 -4.26067,-0.515764 -6.14431,-1.547291 -1.86872,-1.046475 -3.34874,-2.466693 -4.44006,-4.260657 -1.09133,-1.793954 -1.63699,-3.752359 -1.63699,-5.875222 0,-2.12284 0.54566,-4.081245 1.63699,-5.875221 1.09132,-1.808892 2.57134,-3.229109 4.44006,-4.2606571 1.88364,-1.0464545 3.93175,-1.5696926 6.14431,-1.5697157 2.19759,2.31e-5 4.23074,0.5232612 6.09947,1.5697157 1.86869,1.0315481 3.3487,2.4517651 4.44005,4.2606571 m -19.17295,5.875221 c -1e-5,2.317209 0.84465,4.283089 2.53397,5.897646 1.6893,1.614569 3.7374,2.421851 6.14431,2.421847 2.40688,4e-6 4.46246,-0.807278 6.16674,-2.421847 1.70424,-1.629507 2.55637,-3.595387 2.5564,-5.897646 -3e-5,-2.287286 -0.85216,-4.238216 -2.5564,-5.852797 -1.70428,-1.629495 -3.75986,-2.444252 -6.16674,-2.444271 -2.40691,1.9e-5 -4.45501,0.814776 -6.14431,2.444271 -1.68932,1.614581 -2.53398,3.565511 -2.53397,5.852797"
         id="path3049"
         style="fill:#000000" />
      <path
         inkscape:connector-curvature="0"
         d="m 442.70318,30.622606 -3.96914,0 c -0.40366,-1.30062 -0.60548,-2.451744 -0.60546,-3.453374 -0.9568,1.106278 -2.1154,2.010732 -3.4758,2.713365 -1.34548,0.687685 -2.676,1.031528 -3.99156,1.031528 -2.03317,0 -3.8944,-0.530713 -5.5837,-1.59214 -1.68932,-1.061425 -3.01237,-2.481642 -3.96914,-4.260657 -0.94183,-1.793954 -1.41275,-3.737409 -1.41275,-5.830373 0,-2.077991 0.47092,-4.006497 1.41275,-5.785523 0.95677,-1.793942 2.27982,-3.229109 3.96914,-4.3055061 1.6893,-1.0763539 3.55053,-1.6145416 5.5837,-1.6145647 1.30061,2.31e-5 2.63113,0.3438653 3.99156,1.0315275 1.37535,0.6877063 2.53395,1.5772113 3.4758,2.6685163 l 0,-14.0377428 3.5655,0 0,26.7748648 c -3e-5,1.106281 0.0971,2.369527 0.29152,3.789742 0.19432,1.405271 0.43351,2.362049 0.71758,2.870337 m -4.5746,-11.391651 c -2e-5,-2.317185 -0.7475,-4.283065 -2.24245,-5.897646 -1.48003,-1.629495 -3.22167,-2.444252 -5.22491,-2.444271 -2.00327,1.9e-5 -3.75985,0.814776 -5.26976,2.444271 -1.49497,1.614581 -2.24246,3.580461 -2.24245,5.897646 -10e-6,2.317209 0.74748,4.283089 2.24245,5.897646 1.50991,1.614569 3.26649,2.421851 5.26976,2.421847 2.00324,4e-6 3.74488,-0.799803 5.22491,-2.399422 1.49495,-1.614558 2.24243,-3.587913 2.24245,-5.920071"
         id="path3051"
         style="fill:#000000" />
      <path
         inkscape:connector-curvature="0"
         d="m 464.47738,7.8841534 3.5655,0 0,13.8583466 c -1e-5,1.659421 0.50828,3.042265 1.52486,4.148535 1.01657,1.106279 2.24244,1.659417 3.67762,1.659413 1.46506,4e-6 2.7283,-0.553134 3.78975,-1.659413 1.07636,-1.12122 1.61454,-2.504063 1.61456,-4.148535 l 0,-13.8583466 3.54307,0 0,13.8583466 c -2e-5,2.526502 -0.85962,4.694202 -2.57882,6.503108 -1.70427,1.808911 -3.79723,2.713366 -6.27886,2.713366 -2.48165,0 -4.58208,-0.904455 -6.30129,-2.713366 -1.70426,-1.808906 -2.55639,-3.976606 -2.55639,-6.503108 l 0,-13.8583466"
         id="path3053"
         style="fill:#000000" />
      <path
         inkscape:connector-curvature="0"
         d="m 508.49669,30.622606 -3.5655,0 0,-33.4797928 3.5655,0 0,33.4797928"
         id="path3055"
         style="fill:#000000" />
      <path
         inkscape:connector-curvature="0"
         d="m 550.38567,30.622606 -3.90186,0 c -0.50831,-1.136174 -0.72508,-2.175175 -0.65031,-3.117007 -2.33217,2.33215 -4.88856,3.498224 -7.66919,3.498224 -1.31558,0 -2.48912,-0.201821 -3.52064,-0.605462 -1.03154,-0.40364 -1.85377,-0.934353 -2.4667,-1.59214 -0.59799,-0.657783 -1.05395,-1.360417 -1.36789,-2.107904 -0.299,-0.762429 -0.4485,-1.532336 -0.44849,-2.309724 -10e-6,-0.807276 0.12707,-1.539809 0.38121,-2.197602 0.25414,-0.672727 0.57556,-1.248288 0.96426,-1.726688 0.38868,-0.493328 0.90445,-0.926868 1.54729,-1.300621 0.64283,-0.38868 1.25576,-0.702623 1.83881,-0.94183 0.59798,-0.239182 1.32303,-0.448477 2.17517,-0.627886 0.86708,-0.179383 1.60708,-0.306455 2.22003,-0.381217 0.62788,-0.08968 1.39778,-0.156958 2.30973,-0.20182 0.91191,-0.04484 1.60707,-0.06726 2.08547,-0.06727 0.47838,-0.01494 1.10626,-0.02241 1.88366,-0.02242 -0.20931,-1.868694 -0.89699,-3.34871 -2.06305,-4.440053 -1.15114,-1.091307 -2.45176,-1.63697 -3.90187,-1.636989 -0.3588,1.9e-5 -0.70264,0.02992 -1.03152,0.0897 -0.32891,0.05982 -0.63537,0.149516 -0.91941,0.269094 -0.28405,0.119617 -0.54567,0.239214 -0.78486,0.358792 -0.2392,0.119616 -0.47839,0.276588 -0.71758,0.470915 -0.22425,0.194364 -0.4186,0.35881 -0.58304,0.493339 -0.1495,0.119615 -0.31395,0.291536 -0.49334,0.515764 -0.1794,0.209312 -0.30647,0.366284 -0.38121,0.470914 -0.0748,0.08971 -0.17941,0.224262 -0.31395,0.403642 -0.13455,0.179412 -0.20182,0.276585 -0.20182,0.291518 l -2.91518,-1.793961 c 0.26909,-0.403622 0.49333,-0.72504 0.67273,-0.964254 0.19434,-0.239175 0.56808,-0.642816 1.12123,-1.210923 0.56808,-0.5680667 1.12122,-1.0240313 1.65941,-1.3678952 0.55313,-0.3438204 1.27072,-0.6577632 2.15275,-0.9418294 0.88202,-0.2989705 1.79395,-0.448467 2.73579,-0.4484902 1.21091,2.32e-5 2.37699,0.2317429 3.49823,0.6951598 1.13616,0.4634619 2.14526,1.1212468 3.02731,1.973357 0.89696,0.837201 1.62202,1.913577 2.17517,3.229129 0.55312,1.300638 0.84464,2.735805 0.87456,4.305506 l 0,7.512211 c -2e-5,1.016582 0.0971,2.040634 0.29152,3.072158 0.19432,1.016579 0.43352,1.801436 0.71758,2.354573 m -12.22136,-3.004884 c 1.46506,3e-6 2.91518,-0.470911 4.35036,-1.412744 1.43515,-0.941824 2.54143,-2.055574 3.31883,-3.341252 l 0,-3.027309 c -1.25579,0.01496 -2.38449,0.05981 -3.3861,0.134547 -0.9867,0.07476 -2.04065,0.209306 -3.16186,0.403641 -1.12124,0.194356 -2.05559,0.4485 -2.80306,0.762434 -0.74749,0.313952 -1.36791,0.747492 -1.86124,1.300621 -0.49334,0.553146 -0.74001,1.203456 -0.74001,1.950933 0,0.777388 0.35879,1.509921 1.07638,2.197602 0.71758,0.687688 1.78648,1.03153 3.2067,1.031527"
         id="path3057"
         style="fill:#000000" />
      <path
         inkscape:connector-curvature="0"
         d="m 575.70294,11.225405 c 1.59961,-1.7939392 3.43094,-3.0571854 5.49401,-3.7897418 l 4.46248,3.1170068 c -1.28569,2e-5 -2.45176,0.134567 -3.49823,0.403641 -1.04649,0.254164 -1.90609,0.583057 -2.57882,0.986679 -0.67274,0.388709 -1.26325,0.859624 -1.77153,1.412744 -0.5083,0.553154 -0.88951,1.083867 -1.14365,1.59214 -0.25415,0.508304 -0.46345,1.053967 -0.62789,1.636989 -0.1495,0.568101 -0.24667,1.024066 -0.29152,1.367895 -0.0299,0.343855 -0.0448,0.672748 -0.0448,0.986679 l 0,11.683169 -3.49822,0 0,-16.055949 c 0,-1.121208 -0.10465,-2.391929 -0.31394,-3.812166 -0.19435,-1.420198 -0.42607,-2.3919258 -0.69516,-2.9151866 l 3.92429,0 c 0.38868,1.0763981 0.58303,2.2050976 0.58303,3.3861006"
         id="path3059"
         style="fill:#000000" />
    </g>
    <path
       inkscape:connector-curvature="0"
       style="fill:#000000;fill-opacity:1"
       d="m 146.01068,549.91695 168.77277,0 0,3.48598 -168.77277,0 z"
       id="rect3807-6" />
    <path
       inkscape:connector-curvature="0"
       style="fill:#000000;fill-opacity:1"
       d="m 381.05788,549.91695 219.39297,0 0,3.48565 -219.39296,0 z"
       id="rect3807-6-4" />
    <g
       transform="translate(18.426325,501.92994)"
       style="font-size:15.05437659999999944px;font-style:normal;font-weight:normal;line-height:125%;letter-spacing:0px;word-spacing:0px;fill:#000000;fill-opacity:1;stroke:none;font-family:Sans"
       id="text4018">
      <path
         inkscape:connector-curvature="0"
         d="m 133.33914,65.166039 0,1.279034 c -0.38225,-0.196013 -0.77919,-0.343028 -1.19083,-0.441046 -0.41165,-0.098 -0.83799,-0.147008 -1.27903,-0.147015 -0.67137,7e-6 -1.17613,0.102918 -1.51426,0.308732 -0.33324,0.205829 -0.49985,0.514561 -0.49985,0.926197 0,0.313639 0.12006,0.561114 0.36019,0.742428 0.24012,0.176424 0.72282,0.345491 1.4481,0.507203 l 0.4631,0.102911 c 0.96049,0.205826 1.64166,0.497406 2.04351,0.874741 0.40674,0.372443 0.61011,0.894347 0.61011,1.565714 0,0.764482 -0.30383,1.369695 -0.91149,1.815641 -0.60277,0.445946 -1.43341,0.668919 -2.49191,0.66892 -0.44105,-1e-6 -0.9017,-0.04411 -1.38195,-0.132314 -0.47535,-0.08331 -0.97765,-0.210722 -1.50691,-0.38224 l 0,-1.396647 c 0.49986,0.259729 0.99236,0.455749 1.47751,0.588062 0.48515,0.127414 0.9654,0.191121 1.44075,0.19112 0.63706,10e-7 1.12711,-0.10781 1.47015,-0.323434 0.34303,-0.220521 0.51455,-0.529253 0.51456,-0.926197 -1e-5,-0.367536 -0.12497,-0.649315 -0.37489,-0.845338 -0.24503,-0.196018 -0.78654,-0.384687 -1.62452,-0.56601 l -0.47045,-0.110261 c -0.83799,-0.176415 -1.4432,-0.445943 -1.81564,-0.808585 -0.37244,-0.367533 -0.55866,-0.869836 -0.55866,-1.506908 0,-0.774274 0.27443,-1.372136 0.82329,-1.793587 0.54885,-0.421436 1.32803,-0.632158 2.33754,-0.632167 0.49985,9e-6 0.9703,0.03676 1.41135,0.110262 0.44104,0.07352 0.84778,0.183777 1.22023,0.330784"
         id="path3078"
         style="fill:#000000" />
      <path
         inkscape:connector-curvature="0"
         d="m 143.92425,65.871713 c -0.72528,8e-6 -1.29864,0.284237 -1.72008,0.85269 -0.42145,0.563565 -0.63217,1.337845 -0.63217,2.322843 0,0.985006 0.20827,1.761737 0.62482,2.330194 0.42144,0.56356 0.99725,0.845339 1.72743,0.845339 0.72037,0 1.29128,-0.284229 1.71273,-0.85269 0.42143,-0.568457 0.63215,-1.342737 0.63216,-2.322843 -1e-5,-0.975197 -0.21073,-1.747027 -0.63216,-2.315493 -0.42145,-0.573353 -0.99236,-0.860032 -1.71273,-0.86004 m 0,-1.14672 c 1.17611,9e-6 2.09986,0.382248 2.77124,1.14672 0.67136,0.764487 1.00704,1.822997 1.00705,3.175533 -1e-5,1.347644 -0.33569,2.406154 -1.00705,3.175533 -0.67138,0.76448 -1.59513,1.146719 -2.77124,1.14672 -1.18103,-1e-6 -2.10723,-0.38224 -2.77859,-1.14672 -0.66648,-0.769379 -0.99971,-1.827889 -0.99971,-3.175533 0,-1.352536 0.33323,-2.411046 0.99971,-3.175533 0.67136,-0.764472 1.59756,-1.146711 2.77859,-1.14672"
         id="path3080"
         style="fill:#000000" />
      <path
         inkscape:connector-curvature="0"
         d="m 158.89777,61.718528 0,1.124668 -1.29374,0 c -0.48515,1.1e-5 -0.82329,0.09802 -1.01441,0.294031 -0.18622,0.19603 -0.27933,0.548867 -0.27933,1.058511 l 0,0.727726 2.22729,0 0,1.05116 -2.22729,0 0,7.181702 -1.35989,0 0,-7.181702 -1.29373,0 0,-1.05116 1.29373,0 0,-0.57336 c 0,-0.916386 0.21317,-1.582855 0.63952,-1.999409 0.42634,-0.421433 1.10261,-0.632155 2.02881,-0.632167 l 1.27904,0"
         id="path3082"
         style="fill:#000000" />
      <path
         inkscape:connector-curvature="0"
         d="m 166.15297,62.585919 0,2.337545 2.78595,0 0,1.05116 -2.78595,0 0,4.469268 c 0,0.671373 0.0907,1.102617 0.27198,1.293736 0.18622,0.191121 0.56111,0.286681 1.12467,0.28668 l 1.3893,0 0,1.132018 -1.3893,0 c -1.04381,0 -1.76419,-0.19357 -2.16113,-0.580711 -0.39694,-0.39204 -0.59541,-1.102613 -0.59541,-2.131723 l 0,-4.469268 -0.99235,0 0,-1.05116 0.99235,0 0,-2.337545 1.35989,0"
         id="path3084"
         style="fill:#000000" />
      <path
         inkscape:connector-curvature="0"
         d="m 174.73132,64.923464 1.35254,0 1.69068,6.424573 1.68333,-6.424573 1.59511,0 1.69068,6.424573 1.68333,-6.424573 1.35254,0 -2.15378,8.232862 -1.59511,0 -1.77154,-6.748006 -1.77889,6.748006 -1.59511,0 -2.15378,-8.232862"
         id="path3086"
         style="fill:#000000" />
      <path
         inkscape:connector-curvature="0"
         d="m 196.37199,69.017843 c -1.09282,4e-6 -1.84995,0.124967 -2.27139,0.374889 -0.42145,0.24993 -0.63217,0.676274 -0.63217,1.279034 0,0.480252 0.15682,0.862492 0.47045,1.14672 0.31853,0.27933 0.74978,0.418995 1.29374,0.418994 0.74977,10e-7 1.35008,-0.264626 1.80094,-0.793883 0.45574,-0.534154 0.68361,-1.242277 0.68362,-2.124373 l 0,-0.301381 -1.34519,0 m 2.69773,-0.558659 0,4.697142 -1.35254,0 0,-1.249631 c -0.30874,0.499854 -0.69343,0.869842 -1.15407,1.109967 -0.46066,0.235224 -1.02421,0.352836 -1.69068,0.352837 -0.84289,-1e-6 -1.51426,-0.235225 -2.01411,-0.705674 -0.49495,-0.475349 -0.74243,-1.109965 -0.74243,-1.90385 0,-0.926193 0.30873,-1.624516 0.9262,-2.094969 0.62236,-0.470444 1.54856,-0.705669 2.77859,-0.705674 l 1.8965,0 0,-0.132314 c -1e-5,-0.622359 -0.20583,-1.102609 -0.61747,-1.440751 -0.40675,-0.343029 -0.9801,-0.514546 -1.72008,-0.514554 -0.47045,8e-6 -0.92865,0.05636 -1.37459,0.169068 -0.44595,0.112719 -0.87474,0.281786 -1.28639,0.507203 l 0,-1.249631 c 0.49495,-0.191112 0.9752,-0.333226 1.44075,-0.426344 0.46555,-0.098 0.91885,-0.147007 1.3599,-0.147016 1.19082,9e-6 2.08026,0.308741 2.66833,0.926197 0.58805,0.617472 0.88208,1.553469 0.88209,2.807994"
         id="path3088"
         style="fill:#000000" />
      <path
         inkscape:connector-curvature="0"
         d="m 211.42636,66.187796 c -0.15192,-0.0882 -0.31854,-0.151908 -0.49985,-0.19112 -0.17642,-0.0441 -0.37244,-0.06615 -0.58806,-0.06616 -0.76449,7e-6 -1.35255,0.249933 -1.76419,0.749778 -0.40674,0.494958 -0.61011,1.207982 -0.61011,2.139074 l 0,4.336954 -1.35989,0 0,-8.232862 1.35989,0 0,1.279034 c 0.28423,-0.499845 0.65422,-0.869833 1.10997,-1.109966 0.45574,-0.245018 1.0095,-0.36753 1.66127,-0.367539 0.0931,9e-6 0.19602,0.0074 0.30873,0.02205 0.11271,0.0098 0.23767,0.02696 0.37489,0.05146 l 0.007,1.389295"
         id="path3090"
         style="fill:#000000" />
      <path
         inkscape:connector-curvature="0"
         d="m 224.6945,68.70176 0,0.661569 -6.21875,0 c 0.0588,0.9311 0.33813,1.641674 0.83799,2.131723 0.50475,0.485152 1.20552,0.727727 2.10232,0.727727 0.51945,0 1.02175,-0.06371 1.50691,-0.19112 0.49004,-0.127413 0.97519,-0.318532 1.45545,-0.573361 l 0,1.279034 c -0.48516,0.205822 -0.98256,0.362638 -1.49221,0.47045 -0.50966,0.107811 -1.02666,0.161716 -1.55101,0.161717 -1.31334,-1e-6 -2.3547,-0.38224 -3.12408,-1.14672 -0.76448,-0.764479 -1.14672,-1.798486 -1.14672,-3.102025 0,-1.347636 0.36264,-2.415947 1.08792,-3.204936 0.73017,-0.793875 1.71272,-1.190816 2.94765,-1.190825 1.10751,9e-6 1.98226,0.357746 2.62423,1.073213 0.64686,0.710581 0.97029,1.678431 0.9703,2.903554 m -1.35254,-0.396942 c -0.01,-0.739972 -0.21808,-1.330483 -0.62482,-1.771535 -0.40184,-0.441039 -0.936,-0.661562 -1.60246,-0.66157 -0.75469,8e-6 -1.3599,0.21318 -1.81564,0.639517 -0.45085,0.426351 -0.71058,1.026664 -0.77919,1.800939 l 4.82211,-0.0074"
         id="path3092"
         style="fill:#000000" />
      <path
         inkscape:connector-curvature="0"
         d="m 231.02351,68.429781 3.96207,0 0,1.205527 -3.96207,0 0,-1.205527"
         id="path3094"
         style="fill:#000000" />
      <path
         inkscape:connector-curvature="0"
         d="m 247.35693,66.173095 0,-4.454567 1.35254,0 0,11.437798 -1.35254,0 0,-1.234929 c -0.28424,0.490052 -0.64442,0.85514 -1.08056,1.095265 -0.43125,0.235224 -0.95071,0.352836 -1.55837,0.352837 -0.9948,-1e-6 -1.80584,-0.396942 -2.4331,-1.190825 -0.62237,-0.793881 -0.93355,-1.83769 -0.93355,-3.131428 0,-1.29373 0.31118,-2.337538 0.93355,-3.131428 0.62726,-0.793875 1.4383,-1.190816 2.4331,-1.190825 0.60766,9e-6 1.12712,0.120071 1.55837,0.360188 0.43614,0.235232 0.79632,0.59787 1.08056,1.087914 m -4.60893,2.874151 c -1e-5,0.994807 0.20337,1.776438 0.61011,2.344896 0.41164,0.56356 0.9752,0.845339 1.69068,0.845338 0.71547,10e-7 1.27903,-0.281778 1.69068,-0.845338 0.41163,-0.568458 0.61745,-1.350089 0.61746,-2.344896 -1e-5,-0.994799 -0.20583,-1.77398 -0.61746,-2.337545 -0.41165,-0.568452 -0.97521,-0.852682 -1.69068,-0.852689 -0.71548,7e-6 -1.27904,0.284237 -1.69068,0.852689 -0.40674,0.563565 -0.61012,1.342746 -0.61011,2.337545"
         id="path3096"
         style="fill:#000000" />
      <path
         inkscape:connector-curvature="0"
         d="m 263.33014,68.70176 0,0.661569 -6.21875,0 c 0.0588,0.9311 0.33814,1.641674 0.83799,2.131723 0.50475,0.485152 1.20552,0.727727 2.10232,0.727727 0.51945,0 1.02175,-0.06371 1.50691,-0.19112 0.49004,-0.127413 0.97519,-0.318532 1.45545,-0.573361 l 0,1.279034 c -0.48516,0.205822 -0.98256,0.362638 -1.49221,0.47045 -0.50966,0.107811 -1.02666,0.161716 -1.55101,0.161717 -1.31334,-1e-6 -2.3547,-0.38224 -3.12408,-1.14672 -0.76448,-0.764479 -1.14672,-1.798486 -1.14672,-3.102025 0,-1.347636 0.36264,-2.415947 1.08792,-3.204936 0.73017,-0.793875 1.71272,-1.190816 2.94766,-1.190825 1.10751,9e-6 1.98225,0.357746 2.62422,1.073213 0.64686,0.710581 0.9703,1.678431 0.9703,2.903554 m -1.35254,-0.396942 c -0.01,-0.739972 -0.21808,-1.330483 -0.62481,-1.771535 -0.40185,-0.441039 -0.93601,-0.661562 -1.60247,-0.66157 -0.75468,8e-6 -1.3599,0.21318 -1.81564,0.639517 -0.45085,0.426351 -0.71058,1.026664 -0.77918,1.800939 l 4.8221,-0.0074"
         id="path3098"
         style="fill:#000000" />
      <path
         inkscape:connector-curvature="0"
         d="m 274.51066,61.718528 0,1.124668 -1.29373,0 c -0.48516,1.1e-5 -0.82329,0.09802 -1.01441,0.294031 -0.18622,0.19603 -0.27933,0.548867 -0.27933,1.058511 l 0,0.727726 2.22729,0 0,1.05116 -2.22729,0 0,7.181702 -1.35989,0 0,-7.181702 -1.29373,0 0,-1.05116 1.29373,0 0,-0.57336 c 0,-0.916386 0.21317,-1.582855 0.63952,-1.999409 0.42634,-0.421433 1.10261,-0.632155 2.02881,-0.632167 l 1.27903,0"
         id="path3100"
         style="fill:#000000" />
      <path
         inkscape:connector-curvature="0"
         d="m 280.42804,64.923464 1.35255,0 0,8.232862 -1.35255,0 0,-8.232862 m 0,-3.204936 1.35255,0 0,1.71273 -1.35255,0 0,-1.71273"
         id="path3102"
         style="fill:#000000" />
      <path
         inkscape:connector-curvature="0"
         d="m 296.23954,68.187206 0,4.96912 -1.35254,0 0,-4.925015 c -10e-6,-0.779176 -0.15193,-1.362337 -0.45575,-1.749484 -0.30384,-0.387133 -0.75959,-0.580703 -1.36725,-0.580711 -0.73018,8e-6 -1.30599,0.232782 -1.72743,0.698324 -0.42144,0.465554 -0.63217,1.10017 -0.63216,1.903849 l 0,4.653037 -1.35989,0 0,-8.232862 1.35989,0 0,1.279034 c 0.32343,-0.494944 0.70322,-0.864933 1.13937,-1.109966 0.44104,-0.245018 0.94824,-0.36753 1.52161,-0.367539 0.94579,9e-6 1.66126,0.294039 2.14642,0.882093 0.48514,0.583168 0.72772,1.443207 0.72773,2.58012"
         id="path3104"
         style="fill:#000000" />
      <path
         inkscape:connector-curvature="0"
         d="m 310.78672,68.70176 0,0.661569 -6.21875,0 c 0.0588,0.9311 0.33813,1.641674 0.83798,2.131723 0.50475,0.485152 1.20553,0.727727 2.10232,0.727727 0.51945,0 1.02175,-0.06371 1.50691,-0.19112 0.49005,-0.127413 0.9752,-0.318532 1.45545,-0.573361 l 0,1.279034 c -0.48515,0.205822 -0.98256,0.362638 -1.4922,0.47045 -0.50966,0.107811 -1.02667,0.161716 -1.55101,0.161717 -1.31335,-1e-6 -2.3547,-0.38224 -3.12408,-1.14672 -0.76448,-0.764479 -1.14672,-1.798486 -1.14672,-3.102025 0,-1.347636 0.36263,-2.415947 1.08791,-3.204936 0.73018,-0.793875 1.71273,-1.190816 2.94766,-1.190825 1.10751,9e-6 1.98225,0.357746 2.62423,1.073213 0.64686,0.710581 0.97029,1.678431 0.9703,2.903554 m -1.35254,-0.396942 c -0.01,-0.739972 -0.21808,-1.330483 -0.62482,-1.771535 -0.40185,-0.441039 -0.936,-0.661562 -1.60247,-0.66157 -0.75468,8e-6 -1.35989,0.21318 -1.81564,0.639517 -0.45085,0.426351 -0.71057,1.026664 -0.77918,1.800939 l 4.82211,-0.0074"
         id="path3106"
         style="fill:#000000" />
      <path
         inkscape:connector-curvature="0"
         d="m 323.21687,66.173095 0,-4.454567 1.35254,0 0,11.437798 -1.35254,0 0,-1.234929 c -0.28424,0.490052 -0.64442,0.85514 -1.08056,1.095265 -0.43125,0.235224 -0.95071,0.352836 -1.55837,0.352837 -0.9948,-1e-6 -1.80584,-0.396942 -2.4331,-1.190825 -0.62237,-0.793881 -0.93355,-1.83769 -0.93355,-3.131428 0,-1.29373 0.31118,-2.337538 0.93355,-3.131428 0.62726,-0.793875 1.4383,-1.190816 2.4331,-1.190825 0.60766,9e-6 1.12712,0.120071 1.55837,0.360188 0.43614,0.235232 0.79632,0.59787 1.08056,1.087914 m -4.60893,2.874151 c -10e-6,0.994807 0.20337,1.776438 0.61011,2.344896 0.41164,0.56356 0.9752,0.845339 1.69068,0.845338 0.71547,10e-7 1.27903,-0.281778 1.69067,-0.845338 0.41164,-0.568458 0.61746,-1.350089 0.61747,-2.344896 -10e-6,-0.994799 -0.20583,-1.77398 -0.61747,-2.337545 -0.41164,-0.568452 -0.9752,-0.852682 -1.69067,-0.852689 -0.71548,7e-6 -1.27904,0.284237 -1.69068,0.852689 -0.40674,0.563565 -0.61012,1.342746 -0.61011,2.337545"
         id="path3108"
         style="fill:#000000" />
      <path
         inkscape:connector-curvature="0"
         d="m 331.46444,68.429781 3.96206,0 0,1.205527 -3.96206,0 0,-1.205527"
         id="path3110"
         style="fill:#000000" />
      <path
         inkscape:connector-curvature="0"
         d="m 348.7902,66.50388 c 0.33813,-0.607657 0.74242,-1.056053 1.21288,-1.345191 0.47044,-0.289122 1.0242,-0.433687 1.66127,-0.433696 0.85758,9e-6 1.51915,0.30139 1.98471,0.904145 0.46554,0.59787 0.69831,1.450558 0.69832,2.558068 l 0,4.96912 -1.35989,0 0,-4.925015 c -10e-6,-0.788977 -0.13968,-1.374588 -0.41899,-1.756834 -0.27934,-0.382233 -0.70569,-0.573353 -1.27904,-0.573361 -0.70078,8e-6 -1.25454,0.232782 -1.66127,0.698324 -0.40675,0.465554 -0.61012,1.10017 -0.61011,1.903849 l 0,4.653037 -1.3599,0 0,-4.925015 c 0,-0.793878 -0.13967,-1.379489 -0.41899,-1.756834 -0.27934,-0.382233 -0.71058,-0.573353 -1.29374,-0.573361 -0.69097,8e-6 -1.23983,0.235232 -1.64657,0.705674 -0.40674,0.465555 -0.61012,1.097721 -0.61011,1.896499 l 0,4.653037 -1.3599,0 0,-8.232862 1.3599,0 0,1.279034 c 0.30873,-0.504745 0.67872,-0.877184 1.10996,-1.117317 0.43124,-0.240117 0.94335,-0.360179 1.53631,-0.360188 0.59786,9e-6 1.10506,0.151924 1.52161,0.455748 0.42144,0.30384 0.73262,0.744885 0.93355,1.323139"
         id="path3112"
         style="fill:#000000" />
      <path
         inkscape:connector-curvature="0"
         d="m 365.03539,65.871713 c -0.72528,8e-6 -1.29864,0.284237 -1.72008,0.85269 -0.42144,0.563565 -0.63217,1.337845 -0.63216,2.322843 -1e-5,0.985006 0.20827,1.761737 0.62481,2.330194 0.42144,0.56356 0.99725,0.845339 1.72743,0.845339 0.72037,0 1.29128,-0.284229 1.71273,-0.85269 0.42144,-0.568457 0.63216,-1.342737 0.63217,-2.322843 -10e-6,-0.975197 -0.21073,-1.747027 -0.63217,-2.315493 -0.42145,-0.573353 -0.99236,-0.860032 -1.71273,-0.86004 m 0,-1.14672 c 1.17612,9e-6 2.09987,0.382248 2.77124,1.14672 0.67137,0.764487 1.00705,1.822997 1.00706,3.175533 -1e-5,1.347644 -0.33569,2.406154 -1.00706,3.175533 -0.67137,0.76448 -1.59512,1.146719 -2.77124,1.14672 -1.18102,-1e-6 -2.10722,-0.38224 -2.77859,-1.14672 -0.66647,-0.769379 -0.9997,-1.827889 -0.9997,-3.175533 0,-1.352536 0.33323,-2.411046 0.9997,-3.175533 0.67137,-0.764472 1.59757,-1.146711 2.77859,-1.14672"
         id="path3114"
         style="fill:#000000" />
      <path
         inkscape:connector-curvature="0"
         d="m 381.25854,66.173095 0,-4.454567 1.35254,0 0,11.437798 -1.35254,0 0,-1.234929 c -0.28424,0.490052 -0.64442,0.85514 -1.08056,1.095265 -0.43125,0.235224 -0.95071,0.352836 -1.55837,0.352837 -0.9948,-1e-6 -1.80584,-0.396942 -2.4331,-1.190825 -0.62237,-0.793881 -0.93355,-1.83769 -0.93355,-3.131428 0,-1.29373 0.31118,-2.337538 0.93355,-3.131428 0.62726,-0.793875 1.4383,-1.190816 2.4331,-1.190825 0.60766,9e-6 1.12712,0.120071 1.55837,0.360188 0.43614,0.235232 0.79632,0.59787 1.08056,1.087914 m -4.60893,2.874151 c 0,0.994807 0.20337,1.776438 0.61011,2.344896 0.41164,0.56356 0.9752,0.845339 1.69068,0.845338 0.71547,10e-7 1.27903,-0.281778 1.69068,-0.845338 0.41163,-0.568458 0.61745,-1.350089 0.61746,-2.344896 -10e-6,-0.994799 -0.20583,-1.77398 -0.61746,-2.337545 -0.41165,-0.568452 -0.97521,-0.852682 -1.69068,-0.852689 -0.71548,7e-6 -1.27904,0.284237 -1.69068,0.852689 -0.40674,0.563565 -0.61011,1.342746 -0.61011,2.337545"
         id="path3116"
         style="fill:#000000" />
      <path
         inkscape:connector-curvature="0"
         d="m 390.05005,69.907286 0,-4.983822 1.35254,0 0,4.932367 c 0,0.779184 0.15192,1.364795 0.45575,1.756834 0.30383,0.387141 0.75958,0.580711 1.36725,0.58071 0.73017,10e-7 1.30598,-0.232773 1.72743,-0.698323 0.42633,-0.465546 0.63951,-1.100162 0.63951,-1.903849 l 0,-4.667739 1.35255,0 0,8.232862 -1.35255,0 0,-1.264332 c -0.32834,0.499853 -0.71058,0.872292 -1.14672,1.117317 -0.43125,0.240125 -0.93355,0.360187 -1.5069,0.360188 -0.94581,-1e-6 -1.66373,-0.294031 -2.15378,-0.882093 -0.49005,-0.58806 -0.73508,-1.448099 -0.73508,-2.58012 m 3.40341,-5.182293 0,0"
         id="path3118"
         style="fill:#000000" />
      <path
         inkscape:connector-curvature="0"
         d="m 404.53844,61.718528 1.35254,0 0,11.437798 -1.35254,0 0,-11.437798"
         id="path3120"
         style="fill:#000000" />
      <path
         inkscape:connector-curvature="0"
         d="m 417.24791,69.017843 c -1.09282,4e-6 -1.84995,0.124967 -2.27139,0.374889 -0.42144,0.24993 -0.63217,0.676274 -0.63216,1.279034 -10e-6,0.480252 0.15681,0.862492 0.47044,1.14672 0.31854,0.27933 0.74978,0.418995 1.29374,0.418994 0.74977,10e-7 1.35009,-0.264626 1.80094,-0.793883 0.45574,-0.534154 0.68361,-1.242277 0.68362,-2.124373 l 0,-0.301381 -1.34519,0 m 2.69773,-0.558659 0,4.697142 -1.35254,0 0,-1.249631 c -0.30874,0.499854 -0.69343,0.869842 -1.15407,1.109967 -0.46065,0.235224 -1.02421,0.352836 -1.69068,0.352837 -0.84289,-1e-6 -1.51426,-0.235225 -2.01411,-0.705674 -0.49495,-0.475349 -0.74243,-1.109965 -0.74243,-1.90385 0,-0.926193 0.30874,-1.624516 0.9262,-2.094969 0.62236,-0.470444 1.54856,-0.705669 2.77859,-0.705674 l 1.8965,0 0,-0.132314 c -10e-6,-0.622359 -0.20583,-1.102609 -0.61746,-1.440751 -0.40675,-0.343029 -0.98011,-0.514546 -1.72008,-0.514554 -0.47046,8e-6 -0.92865,0.05636 -1.3746,0.169068 -0.44595,0.112719 -0.87474,0.281786 -1.28638,0.507203 l 0,-1.249631 c 0.49495,-0.191112 0.9752,-0.333226 1.44075,-0.426344 0.46554,-0.098 0.91884,-0.147007 1.35989,-0.147016 1.19082,9e-6 2.08026,0.308741 2.66833,0.926197 0.58805,0.617472 0.88208,1.553469 0.88209,2.807994"
         id="path3122"
         style="fill:#000000" />
      <path
         inkscape:connector-curvature="0"
         d="m 432.30229,66.187796 c -0.15193,-0.0882 -0.31854,-0.151908 -0.49986,-0.19112 -0.17642,-0.0441 -0.37244,-0.06615 -0.58806,-0.06616 -0.76448,7e-6 -1.35254,0.249933 -1.76418,0.749778 -0.40675,0.494958 -0.61012,1.207982 -0.61012,2.139074 l 0,4.336954 -1.35989,0 0,-8.232862 1.35989,0 0,1.279034 c 0.28423,-0.499845 0.65422,-0.869833 1.10997,-1.109966 0.45574,-0.245018 1.0095,-0.36753 1.66127,-0.367539 0.0931,9e-6 0.19602,0.0074 0.30874,0.02205 0.1127,0.0098 0.23766,0.02696 0.37489,0.05146 l 0.007,1.389295"
         id="path3124"
         style="fill:#000000" />
      <path
         inkscape:connector-curvature="0"
         d="m 437.84478,68.429781 3.96206,0 0,1.205527 -3.96206,0 0,-1.205527"
         id="path3126"
         style="fill:#000000" />
      <path
         inkscape:connector-curvature="0"
         d="m 454.00912,65.166039 0,1.279034 c -0.38225,-0.196013 -0.77919,-0.343028 -1.19082,-0.441046 -0.41165,-0.098 -0.838,-0.147008 -1.27904,-0.147015 -0.67137,7e-6 -1.17612,0.102918 -1.51426,0.308732 -0.33323,0.205829 -0.49985,0.514561 -0.49985,0.926197 0,0.313639 0.12006,0.561114 0.36019,0.742428 0.24012,0.176424 0.72282,0.345491 1.4481,0.507203 l 0.4631,0.102911 c 0.96049,0.205826 1.64166,0.497406 2.04351,0.874741 0.40674,0.372443 0.61011,0.894347 0.61012,1.565714 -1e-5,0.764482 -0.30384,1.369695 -0.9115,1.815641 -0.60277,0.445946 -1.4334,0.668919 -2.49191,0.66892 -0.44105,-1e-6 -0.9017,-0.04411 -1.38194,-0.132314 -0.47536,-0.08331 -0.97766,-0.210722 -1.50691,-0.38224 l 0,-1.396647 c 0.49985,0.259729 0.99235,0.455749 1.4775,0.588062 0.48515,0.127414 0.9654,0.191121 1.44075,0.19112 0.63707,10e-7 1.12712,-0.10781 1.47016,-0.323434 0.34303,-0.220521 0.51455,-0.529253 0.51455,-0.926197 0,-0.367536 -0.12497,-0.649315 -0.37489,-0.845338 -0.24503,-0.196018 -0.78653,-0.384687 -1.62452,-0.56601 l -0.47045,-0.110261 c -0.83799,-0.176415 -1.4432,-0.445943 -1.81564,-0.808585 -0.37244,-0.367533 -0.55866,-0.869836 -0.55866,-1.506908 0,-0.774274 0.27443,-1.372136 0.82329,-1.793587 0.54886,-0.421436 1.32804,-0.632158 2.33754,-0.632167 0.49985,9e-6 0.9703,0.03676 1.41135,0.110262 0.44104,0.07352 0.84779,0.183777 1.22023,0.330784"
         id="path3128"
         style="fill:#000000" />
      <path
         inkscape:connector-curvature="0"
         d="m 464.82944,73.920806 c -0.38224,0.980101 -0.75468,1.619618 -1.11732,1.918551 -0.36264,0.298929 -0.84779,0.448394 -1.45545,0.448397 l -1.08056,0 0,-1.132018 0.79388,0 c 0.37244,-2e-6 0.66157,-0.08821 0.86739,-0.264628 0.20582,-0.17642 0.43369,-0.592963 0.68362,-1.249631 l 0.24258,-0.617465 -3.3299,-8.100548 1.4334,0 2.57277,6.439274 2.57277,-6.439274 1.4334,0 -3.61658,8.997342"
         id="path3130"
         style="fill:#000000" />
      <path
         inkscape:connector-curvature="0"
         d="m 481.94939,68.187206 0,4.96912 -1.35254,0 0,-4.925015 c -1e-5,-0.779176 -0.15192,-1.362337 -0.45575,-1.749484 -0.30384,-0.387133 -0.75958,-0.580703 -1.36724,-0.580711 -0.73018,8e-6 -1.30599,0.232782 -1.72743,0.698324 -0.42145,0.465554 -0.63217,1.10017 -0.63217,1.903849 l 0,4.653037 -1.35989,0 0,-8.232862 1.35989,0 0,1.279034 c 0.32343,-0.494944 0.70322,-0.864933 1.13937,-1.109966 0.44104,-0.245018 0.94825,-0.36753 1.52161,-0.367539 0.94579,9e-6 1.66127,0.294039 2.14643,0.882093 0.48514,0.583168 0.72771,1.443207 0.72772,2.58012"
         id="path3132"
         style="fill:#000000" />
      <path
         inkscape:connector-curvature="0"
         d="m 490.79236,62.585919 0,2.337545 2.78594,0 0,1.05116 -2.78594,0 0,4.469268 c 0,0.671373 0.0907,1.102617 0.27198,1.293736 0.18621,0.191121 0.5611,0.286681 1.12466,0.28668 l 1.3893,0 0,1.132018 -1.3893,0 c -1.04381,0 -1.76418,-0.19357 -2.16112,-0.580711 -0.39694,-0.39204 -0.59542,-1.102613 -0.59541,-2.131723 l 0,-4.469268 -0.99236,0 0,-1.05116 0.99236,0 0,-2.337545 1.35989,0"
         id="path3134"
         style="fill:#000000" />
      <path
         inkscape:connector-curvature="0"
         d="m 507.00081,68.187206 0,4.96912 -1.35254,0 0,-4.925015 c 0,-0.779176 -0.15192,-1.362337 -0.45575,-1.749484 -0.30383,-0.387133 -0.75958,-0.580703 -1.36724,-0.580711 -0.73018,8e-6 -1.30599,0.232782 -1.72743,0.698324 -0.42145,0.465554 -0.63217,1.10017 -0.63217,1.903849 l 0,4.653037 -1.35989,0 0,-11.437798 1.35989,0 0,4.48397 c 0.32343,-0.494944 0.70322,-0.864933 1.13937,-1.109966 0.44105,-0.245018 0.94825,-0.36753 1.52161,-0.367539 0.9458,9e-6 1.66127,0.294039 2.14643,0.882093 0.48514,0.583168 0.72772,1.443207 0.72772,2.58012"
         id="path3136"
         style="fill:#000000" />
      <path
         inkscape:connector-curvature="0"
         d="m 521.54798,68.70176 0,0.661569 -6.21875,0 c 0.0588,0.9311 0.33813,1.641674 0.83798,2.131723 0.50475,0.485152 1.20553,0.727727 2.10232,0.727727 0.51945,0 1.02176,-0.06371 1.50691,-0.19112 0.49005,-0.127413 0.9752,-0.318532 1.45546,-0.573361 l 0,1.279034 c -0.48516,0.205822 -0.98256,0.362638 -1.49221,0.47045 -0.50966,0.107811 -1.02666,0.161716 -1.55101,0.161717 -1.31334,-1e-6 -2.3547,-0.38224 -3.12408,-1.14672 -0.76448,-0.764479 -1.14672,-1.798486 -1.14672,-3.102025 0,-1.347636 0.36264,-2.415947 1.08791,-3.204936 0.73018,-0.793875 1.71273,-1.190816 2.94766,-1.190825 1.10751,9e-6 1.98225,0.357746 2.62423,1.073213 0.64686,0.710581 0.97029,1.678431 0.9703,2.903554 m -1.35254,-0.396942 c -0.01,-0.739972 -0.21808,-1.330483 -0.62482,-1.771535 -0.40185,-0.441039 -0.936,-0.661562 -1.60247,-0.66157 -0.75468,8e-6 -1.35989,0.21318 -1.81564,0.639517 -0.45085,0.426351 -0.71057,1.026664 -0.77918,1.800939 l 4.82211,-0.0074"
         id="path3138"
         style="fill:#000000" />
      <path
         inkscape:connector-curvature="0"
         d="m 533.80908,65.166039 0,1.279034 c -0.38225,-0.196013 -0.77919,-0.343028 -1.19083,-0.441046 -0.41165,-0.098 -0.83799,-0.147008 -1.27903,-0.147015 -0.67137,7e-6 -1.17613,0.102918 -1.51426,0.308732 -0.33324,0.205829 -0.49985,0.514561 -0.49985,0.926197 0,0.313639 0.12006,0.561114 0.36019,0.742428 0.24012,0.176424 0.72282,0.345491 1.4481,0.507203 l 0.4631,0.102911 c 0.96049,0.205826 1.64166,0.497406 2.04351,0.874741 0.40674,0.372443 0.61011,0.894347 0.61011,1.565714 0,0.764482 -0.30383,1.369695 -0.91149,1.815641 -0.60277,0.445946 -1.43341,0.668919 -2.49191,0.66892 -0.44105,-1e-6 -0.9017,-0.04411 -1.38195,-0.132314 -0.47535,-0.08331 -0.97765,-0.210722 -1.5069,-0.38224 l 0,-1.396647 c 0.49985,0.259729 0.99235,0.455749 1.4775,0.588062 0.48515,0.127414 0.9654,0.191121 1.44075,0.19112 0.63706,10e-7 1.12711,-0.10781 1.47015,-0.323434 0.34304,-0.220521 0.51455,-0.529253 0.51456,-0.926197 -10e-6,-0.367536 -0.12497,-0.649315 -0.37489,-0.845338 -0.24503,-0.196018 -0.78654,-0.384687 -1.62452,-0.56601 l -0.47045,-0.110261 c -0.83799,-0.176415 -1.4432,-0.445943 -1.81564,-0.808585 -0.37244,-0.367533 -0.55866,-0.869836 -0.55866,-1.506908 0,-0.774274 0.27443,-1.372136 0.82329,-1.793587 0.54885,-0.421436 1.32803,-0.632158 2.33754,-0.632167 0.49985,9e-6 0.9703,0.03676 1.41135,0.110262 0.44104,0.07352 0.84778,0.183777 1.22023,0.330784"
         id="path3140"
         style="fill:#000000" />
      <path
         inkscape:connector-curvature="0"
         d="m 541.20394,64.923464 1.35254,0 0,8.232862 -1.35254,0 0,-8.232862 m 0,-3.204936 1.35254,0 0,1.71273 -1.35254,0 0,-1.71273"
         id="path3142"
         style="fill:#000000" />
      <path
         inkscape:connector-curvature="0"
         d="m 549.58383,64.923464 6.42458,0 0,1.234929 -5.08674,5.91737 5.08674,0 0,1.080563 -6.60835,0 0,-1.234929 5.08674,-5.91737 -4.90297,0 0,-1.080563"
         id="path3144"
         style="fill:#000000" />
      <path
         inkscape:connector-curvature="0"
         d="m 569.91605,68.70176 0,0.661569 -6.21875,0 c 0.0588,0.9311 0.33813,1.641674 0.83799,2.131723 0.50475,0.485152 1.20552,0.727727 2.10232,0.727727 0.51945,0 1.02175,-0.06371 1.50691,-0.19112 0.49004,-0.127413 0.97519,-0.318532 1.45545,-0.573361 l 0,1.279034 c -0.48516,0.205822 -0.98256,0.362638 -1.49221,0.47045 -0.50966,0.107811 -1.02666,0.161716 -1.55101,0.161717 -1.31334,-1e-6 -2.3547,-0.38224 -3.12408,-1.14672 -0.76448,-0.764479 -1.14672,-1.798486 -1.14672,-3.102025 0,-1.347636 0.36264,-2.415947 1.08792,-3.204936 0.73017,-0.793875 1.71272,-1.190816 2.94765,-1.190825 1.10751,9e-6 1.98226,0.357746 2.62423,1.073213 0.64686,0.710581 0.97029,1.678431 0.9703,2.903554 m -1.35254,-0.396942 c -0.01,-0.739972 -0.21808,-1.330483 -0.62482,-1.771535 -0.40184,-0.441039 -0.936,-0.661562 -1.60246,-0.66157 -0.75469,8e-6 -1.3599,0.21318 -1.81564,0.639517 -0.45085,0.426351 -0.71058,1.026664 -0.77919,1.800939 l 4.82211,-0.0074"
         id="path3146"
         style="fill:#000000" />
      <path
         inkscape:connector-curvature="0"
         d="m 581.69932,66.187796 c -0.15192,-0.0882 -0.31854,-0.151908 -0.49985,-0.19112 -0.17643,-0.0441 -0.37245,-0.06615 -0.58806,-0.06616 -0.76449,7e-6 -1.35255,0.249933 -1.76419,0.749778 -0.40674,0.494958 -0.61012,1.207982 -0.61011,2.139074 l 0,4.336954 -1.3599,0 0,-8.232862 1.3599,0 0,1.279034 c 0.28422,-0.499845 0.65421,-0.869833 1.10996,-1.109966 0.45575,-0.245018 1.0095,-0.36753 1.66128,-0.367539 0.0931,9e-6 0.19601,0.0074 0.30873,0.02205 0.11271,0.0098 0.23767,0.02696 0.37489,0.05146 l 0.007,1.389295"
         id="path3148"
         style="fill:#000000" />
    </g>
  </g>
</svg>
